<?xml version="1.0" standalone="no"?>
<svg xmlns="http://www.w3.org/2000/svg" width="400" height="400"><defs><clipPath id="clip-path-dot-color"><rect x="2" y="98" width="12" height="12" transform="rotate(0,8,104)"/><rect x="2" y="134" width="12" height="12" transform="rotate(0,8,140)"/><rect x="2" y="170" width="12" height="12" transform="rotate(0,8,176)"/><rect x="2" y="182" width="12" height="12" transform="rotate(0,8,188)"/><rect x="2" y="230" width="12" height="12" transform="rotate(0,8,236)"/><rect x="2" y="242" width="12" height="12" transform="rotate(0,8,248)"/><rect x="2" y="266" width="12" height="12" transform="rotate(0,8,272)"/><rect x="2" y="290" width="12" height="12" transform="rotate(0,8,296)"/><rect x="14" y="122" width="12" height="12" transform="rotate(0,20,128)"/><rect x="14" y="146" width="12" height="12" transform="rotate(0,20,152)"/><rect x="14" y="182" width="12" height="12" transform="rotate(0,20,188)"/><rect x="14" y="194" width="12" height="12" transform="rotate(0,20,200)"/><rect x="14" y="206" width="12" height="12" transform="rotate(0,20,212)"/><rect x="14" y="218" width="12" height="12" transform="rotate(0,20,224)"/><rect x="14" y="254" width="12" height="12" transform="rotate(0,20,260)"/><rect x="14" y="266" width="12" height="12" transform="rotate(0,20,272)"/><rect x="14" y="290" width="12" height="12" transform="rotate(0,20,296)"/><rect x="26" y="98" width="12" height="12" transform="rotate(0,32,104)"/><rect x="26" y="110" width="12" height="12" transform="rotate(0,32,116)"/><rect x="26" y="122" width="12" height="12" transform="rotate(0,32,128)"/><rect x="26" y="146" width="12" height="12" transform="rotate(0,32,152)"/><rect x="26" y="158" width="12" height="12" transform="rotate(0,32,164)"/><rect x="26" y="170" width="12" height="12" transform="rotate(0,32,176)"/><rect x="26" y="182" width="12" height="12" transform="rotate(0,32,188)"/><rect x="26" y="194" width="12" height="12" transform="rotate(0,32,200)"/><rect x="26" y="206" width="12" height="12" transform="rotate(0,32,212)"/><rect x="26" y="218" width="12" height="12" transform="rotate(0,32,224)"/><rect x="26" y="254" width="12" height="12" transform="rotate(0,32,260)"/><rect x="26" y="266" width="12" height="12" transform="rotate(0,32,272)"/><rect x="26" y="278" width="12" height="12" transform="rotate(0,32,284)"/><rect x="26" y="290" width="12" height="12" transform="rotate(0,32,296)"/><rect x="38" y="110" width="12" height="12" transform="rotate(0,44,116)"/><rect x="38" y="146" width="12" height="12" transform="rotate(0,44,152)"/><rect x="38" y="158" width="12" height="12" transform="rotate(0,44,164)"/><rect x="38" y="194" width="12" height="12" transform="rotate(0,44,200)"/><rect x="38" y="206" width="12" height="12" transform="rotate(0,44,212)"/><rect x="38" y="218" width="12" height="12" transform="rotate(0,44,224)"/><rect x="38" y="230" width="12" height="12" transform="rotate(0,44,236)"/><rect x="38" y="242" width="12" height="12" transform="rotate(0,44,248)"/><rect x="38" y="254" width="12" height="12" transform="rotate(0,44,260)"/><rect x="38" y="278" width="12" height="12" transform="rotate(0,44,284)"/><rect x="38" y="290" width="12" height="12" transform="rotate(0,44,296)"/><rect x="50" y="98" width="12" height="12" transform="rotate(0,56,104)"/><rect x="50" y="122" width="12" height="12" transform="rotate(0,56,128)"/><rect x="50" y="158" width="12" height="12" transform="rotate(0,56,164)"/><rect x="50" y="170" width="12" height="12" transform="rotate(0,56,176)"/><rect x="50" y="194" width="12" height="12" transform="rotate(0,56,200)"/><rect x="50" y="254" width="12" height="12" transform="rotate(0,56,260)"/><rect x="62" y="122" width="12" height="12" transform="rotate(0,68,128)"/><rect x="62" y="134" width="12" height="12" transform="rotate(0,68,140)"/><rect x="62" y="266" width="12" height="12" transform="rotate(0,68,272)"/><rect x="62" y="278" width="12" height="12" transform="rotate(0,68,284)"/><rect x="62" y="290" width="12" height="12" transform="rotate(0,68,296)"/><rect x="74" y="98" width="12" height="12" transform="rotate(0,80,104)"/><rect x="74" y="122" width="12" height="12" transform="rotate(0,80,128)"/><rect x="74" y="146" width="12" height="12" transform="rotate(0,80,152)"/><rect x="74" y="170" width="12" height="12" transform="rotate(0,80,176)"/><rect x="74" y="194" width="12" height="12" transform="rotate(0,80,200)"/><rect x="74" y="218" width="12" height="12" transform="rotate(0,80,224)"/><rect x="74" y="242" width="12" height="12" transform="rotate(0,80,248)"/><rect x="74" y="266" width="12" height="12" transform="rotate(0,80,272)"/><rect x="74" y="290" width="12" height="12" transform="rotate(0,80,296)"/><rect x="86" y="98" width="12" height="12" transform="rotate(0,92,104)"/><rect x="86" y="110" width="12" height="12" transform="rotate(0,92,116)"/><rect x="86" y="170" width="12" height="12" transform="rotate(0,92,176)"/><rect x="86" y="206" width="12" height="12" transform="rotate(0,92,212)"/><rect x="86" y="218" width="12" height="12" transform="rotate(0,92,224)"/><rect x="86" y="230" width="12" height="12" transform="rotate(0,92,236)"/><rect x="86" y="242" width="12" height="12" transform="rotate(0,92,248)"/><rect x="86" y="278" width="12" height="12" transform="rotate(0,92,284)"/><rect x="98" y="62" width="12" height="12" transform="rotate(0,104,68)"/><rect x="98" y="74" width="12" height="12" transform="rotate(0,104,80)"/><rect x="98" y="110" width="12" height="12" transform="rotate(0,104,116)"/><rect x="98" y="134" width="12" height="12" transform="rotate(0,104,140)"/><rect x="98" y="146" width="12" height="12" transform="rotate(0,104,152)"/><rect x="98" y="158" width="12" height="12" transform="rotate(0,104,164)"/><rect x="98" y="170" width="12" height="12" transform="rotate(0,104,176)"/><rect x="98" y="206" width="12" height="12" transform="rotate(0,104,212)"/><rect x="98" y="242" width="12" height="12" transform="rotate(0,104,248)"/><rect x="98" y="266" width="12" height="12" transform="rotate(0,104,272)"/><rect x="98" y="278" width="12" height="12" transform="rotate(0,104,284)"/><rect x="98" y="290" width="12" height="12" transform="rotate(0,104,296)"/><rect x="98" y="314" width="12" height="12" transform="rotate(0,104,320)"/><rect x="98" y="338" width="12" height="12" transform="rotate(0,104,344)"/><rect x="98" y="362" width="12" height="12" transform="rotate(0,104,368)"/><rect x="98" y="386" width="12" height="12" transform="rotate(0,104,392)"/><rect x="110" y="2" width="12" height="12" transform="rotate(0,116,8)"/><rect x="110" y="26" width="12" height="12" transform="rotate(0,116,32)"/><rect x="110" y="62" width="12" height="12" transform="rotate(0,116,68)"/><rect x="110" y="98" width="12" height="12" transform="rotate(0,116,104)"/><rect x="110" y="110" width="12" height="12" transform="rotate(0,116,116)"/><rect x="110" y="170" width="12" height="12" transform="rotate(0,116,176)"/><rect x="110" y="206" width="12" height="12" transform="rotate(0,116,212)"/><rect x="110" y="218" width="12" height="12" transform="rotate(0,116,224)"/><rect x="110" y="266" width="12" height="12" transform="rotate(0,116,272)"/><rect x="110" y="278" width="12" height="12" transform="rotate(0,116,284)"/><rect x="110" y="302" width="12" height="12" transform="rotate(0,116,308)"/><rect x="110" y="326" width="12" height="12" transform="rotate(0,116,332)"/><rect x="110" y="338" width="12" height="12" transform="rotate(0,116,344)"/><rect x="110" y="350" width="12" height="12" transform="rotate(0,116,356)"/><rect x="110" y="362" width="12" height="12" transform="rotate(0,116,368)"/><rect x="122" y="2" width="12" height="12" transform="rotate(0,128,8)"/><rect x="122" y="14" width="12" height="12" transform="rotate(0,128,20)"/><rect x="122" y="26" width="12" height="12" transform="rotate(0,128,32)"/><rect x="122" y="38" width="12" height="12" transform="rotate(0,128,44)"/><rect x="122" y="74" width="12" height="12" transform="rotate(0,128,80)"/><rect x="122" y="98" width="12" height="12" transform="rotate(0,128,104)"/><rect x="122" y="122" width="12" height="12" transform="rotate(0,128,128)"/><rect x="122" y="134" width="12" height="12" transform="rotate(0,128,140)"/><rect x="122" y="146" width="12" height="12" transform="rotate(0,128,152)"/><rect x="122" y="170" width="12" height="12" transform="rotate(0,128,176)"/><rect x="122" y="182" width="12" height="12" transform="rotate(0,128,188)"/><rect x="122" y="218" width="12" height="12" transform="rotate(0,128,224)"/><rect x="122" y="230" width="12" height="12" transform="rotate(0,128,236)"/><rect x="122" y="242" width="12" height="12" transform="rotate(0,128,248)"/><rect x="122" y="254" width="12" height="12" transform="rotate(0,128,260)"/><rect x="122" y="290" width="12" height="12" transform="rotate(0,128,296)"/><rect x="122" y="302" width="12" height="12" transform="rotate(0,128,308)"/><rect x="122" y="314" width="12" height="12" transform="rotate(0,128,320)"/><rect x="122" y="326" width="12" height="12" transform="rotate(0,128,332)"/><rect x="122" y="350" width="12" height="12" transform="rotate(0,128,356)"/><rect x="122" y="374" width="12" height="12" transform="rotate(0,128,380)"/><rect x="134" y="2" width="12" height="12" transform="rotate(0,140,8)"/><rect x="134" y="14" width="12" height="12" transform="rotate(0,140,20)"/><rect x="134" y="26" width="12" height="12" transform="rotate(0,140,32)"/><rect x="134" y="86" width="12" height="12" transform="rotate(0,140,92)"/><rect x="134" y="98" width="12" height="12" transform="rotate(0,140,104)"/><rect x="134" y="110" width="12" height="12" transform="rotate(0,140,116)"/><rect x="134" y="134" width="12" height="12" transform="rotate(0,140,140)"/><rect x="134" y="194" width="12" height="12" transform="rotate(0,140,200)"/><rect x="134" y="218" width="12" height="12" transform="rotate(0,140,224)"/><rect x="134" y="230" width="12" height="12" transform="rotate(0,140,236)"/><rect x="134" y="242" width="12" height="12" transform="rotate(0,140,248)"/><rect x="134" y="266" width="12" height="12" transform="rotate(0,140,272)"/><rect x="134" y="278" width="12" height="12" transform="rotate(0,140,284)"/><rect x="134" y="314" width="12" height="12" transform="rotate(0,140,320)"/><rect x="134" y="326" width="12" height="12" transform="rotate(0,140,332)"/><rect x="134" y="350" width="12" height="12" transform="rotate(0,140,356)"/><rect x="134" y="362" width="12" height="12" transform="rotate(0,140,368)"/><rect x="134" y="386" width="12" height="12" transform="rotate(0,140,392)"/><rect x="146" y="2" width="12" height="12" transform="rotate(0,152,8)"/><rect x="146" y="26" width="12" height="12" transform="rotate(0,152,32)"/><rect x="146" y="62" width="12" height="12" transform="rotate(0,152,68)"/><rect x="146" y="74" width="12" height="12" transform="rotate(0,152,80)"/><rect x="146" y="98" width="12" height="12" transform="rotate(0,152,104)"/><rect x="146" y="110" width="12" height="12" transform="rotate(0,152,116)"/><rect x="146" y="158" width="12" height="12" transform="rotate(0,152,164)"/><rect x="146" y="170" width="12" height="12" transform="rotate(0,152,176)"/><rect x="146" y="218" width="12" height="12" transform="rotate(0,152,224)"/><rect x="146" y="230" width="12" height="12" transform="rotate(0,152,236)"/><rect x="146" y="254" width="12" height="12" transform="rotate(0,152,260)"/><rect x="146" y="266" width="12" height="12" transform="rotate(0,152,272)"/><rect x="146" y="290" width="12" height="12" transform="rotate(0,152,296)"/><rect x="146" y="314" width="12" height="12" transform="rotate(0,152,320)"/><rect x="146" y="338" width="12" height="12" transform="rotate(0,152,344)"/><rect x="146" y="374" width="12" height="12" transform="rotate(0,152,380)"/><rect x="146" y="386" width="12" height="12" transform="rotate(0,152,392)"/><rect x="158" y="14" width="12" height="12" transform="rotate(0,164,20)"/><rect x="158" y="26" width="12" height="12" transform="rotate(0,164,32)"/><rect x="158" y="38" width="12" height="12" transform="rotate(0,164,44)"/><rect x="158" y="62" width="12" height="12" transform="rotate(0,164,68)"/><rect x="158" y="86" width="12" height="12" transform="rotate(0,164,92)"/><rect x="158" y="110" width="12" height="12" transform="rotate(0,164,116)"/><rect x="158" y="122" width="12" height="12" transform="rotate(0,164,128)"/><rect x="158" y="182" width="12" height="12" transform="rotate(0,164,188)"/><rect x="158" y="194" width="12" height="12" transform="rotate(0,164,200)"/><rect x="158" y="206" width="12" height="12" transform="rotate(0,164,212)"/><rect x="158" y="254" width="12" height="12" transform="rotate(0,164,260)"/><rect x="158" y="266" width="12" height="12" transform="rotate(0,164,272)"/><rect x="158" y="278" width="12" height="12" transform="rotate(0,164,284)"/><rect x="158" y="290" width="12" height="12" transform="rotate(0,164,296)"/><rect x="158" y="314" width="12" height="12" transform="rotate(0,164,320)"/><rect x="158" y="362" width="12" height="12" transform="rotate(0,164,368)"/><rect x="158" y="386" width="12" height="12" transform="rotate(0,164,392)"/><rect x="170" y="26" width="12" height="12" transform="rotate(0,176,32)"/><rect x="170" y="74" width="12" height="12" transform="rotate(0,176,80)"/><rect x="170" y="98" width="12" height="12" transform="rotate(0,176,104)"/><rect x="170" y="122" width="12" height="12" transform="rotate(0,176,128)"/><rect x="170" y="134" width="12" height="12" transform="rotate(0,176,140)"/><rect x="170" y="194" width="12" height="12" transform="rotate(0,176,200)"/><rect x="170" y="218" width="12" height="12" transform="rotate(0,176,224)"/><rect x="170" y="266" width="12" height="12" transform="rotate(0,176,272)"/><rect x="170" y="314" width="12" height="12" transform="rotate(0,176,320)"/><rect x="170" y="350" width="12" height="12" transform="rotate(0,176,356)"/><rect x="170" y="362" width="12" height="12" transform="rotate(0,176,368)"/><rect x="170" y="374" width="12" height="12" transform="rotate(0,176,380)"/><rect x="182" y="2" width="12" height="12" transform="rotate(0,188,8)"/><rect x="182" y="26" width="12" height="12" transform="rotate(0,188,32)"/><rect x="182" y="38" width="12" height="12" transform="rotate(0,188,44)"/><rect x="182" y="50" width="12" height="12" transform="rotate(0,188,56)"/><rect x="182" y="86" width="12" height="12" transform="rotate(0,188,92)"/><rect x="182" y="98" width="12" height="12" transform="rotate(0,188,104)"/><rect x="182" y="110" width="12" height="12" transform="rotate(0,188,116)"/><rect x="182" y="170" width="12" height="12" transform="rotate(0,188,176)"/><rect x="182" y="182" width="12" height="12" transform="rotate(0,188,188)"/><rect x="182" y="206" width="12" height="12" transform="rotate(0,188,212)"/><rect x="182" y="218" width="12" height="12" transform="rotate(0,188,224)"/><rect x="182" y="230" width="12" height="12" transform="rotate(0,188,236)"/><rect x="182" y="290" width="12" height="12" transform="rotate(0,188,296)"/><rect x="182" y="314" width="12" height="12" transform="rotate(0,188,320)"/><rect x="182" y="338" width="12" height="12" transform="rotate(0,188,344)"/><rect x="182" y="362" width="12" height="12" transform="rotate(0,188,368)"/><rect x="182" y="374" width="12" height="12" transform="rotate(0,188,380)"/><rect x="182" y="386" width="12" height="12" transform="rotate(0,188,392)"/><rect x="194" y="2" width="12" height="12" transform="rotate(0,200,8)"/><rect x="194" y="26" width="12" height="12" transform="rotate(0,200,32)"/><rect x="194" y="74" width="12" height="12" transform="rotate(0,200,80)"/><rect x="194" y="86" width="12" height="12" transform="rotate(0,200,92)"/><rect x="194" y="158" width="12" height="12" transform="rotate(0,200,164)"/><rect x="194" y="194" width="12" height="12" transform="rotate(0,200,200)"/><rect x="194" y="218" width="12" height="12" transform="rotate(0,200,224)"/><rect x="194" y="230" width="12" height="12" transform="rotate(0,200,236)"/><rect x="194" y="278" width="12" height="12" transform="rotate(0,200,284)"/><rect x="194" y="302" width="12" height="12" transform="rotate(0,200,308)"/><rect x="194" y="326" width="12" height="12" transform="rotate(0,200,332)"/><rect x="194" y="338" width="12" height="12" transform="rotate(0,200,344)"/><rect x="194" y="350" width="12" height="12" transform="rotate(0,200,356)"/><rect x="194" y="362" width="12" height="12" transform="rotate(0,200,368)"/><rect x="194" y="386" width="12" height="12" transform="rotate(0,200,392)"/><rect x="206" y="2" width="12" height="12" transform="rotate(0,212,8)"/><rect x="206" y="14" width="12" height="12" transform="rotate(0,212,20)"/><rect x="206" y="38" width="12" height="12" transform="rotate(0,212,44)"/><rect x="206" y="50" width="12" height="12" transform="rotate(0,212,56)"/><rect x="206" y="86" width="12" height="12" transform="rotate(0,212,92)"/><rect x="206" y="98" width="12" height="12" transform="rotate(0,212,104)"/><rect x="206" y="110" width="12" height="12" transform="rotate(0,212,116)"/><rect x="206" y="122" width="12" height="12" transform="rotate(0,212,128)"/><rect x="206" y="134" width="12" height="12" transform="rotate(0,212,140)"/><rect x="206" y="146" width="12" height="12" transform="rotate(0,212,152)"/><rect x="206" y="158" width="12" height="12" transform="rotate(0,212,164)"/><rect x="206" y="170" width="12" height="12" transform="rotate(0,212,176)"/><rect x="206" y="182" width="12" height="12" transform="rotate(0,212,188)"/><rect x="206" y="230" width="12" height="12" transform="rotate(0,212,236)"/><rect x="206" y="242" width="12" height="12" transform="rotate(0,212,248)"/><rect x="206" y="254" width="12" height="12" transform="rotate(0,212,260)"/><rect x="206" y="278" width="12" height="12" transform="rotate(0,212,284)"/><rect x="206" y="290" width="12" height="12" transform="rotate(0,212,296)"/><rect x="206" y="314" width="12" height="12" transform="rotate(0,212,320)"/><rect x="206" y="326" width="12" height="12" transform="rotate(0,212,332)"/><rect x="218" y="26" width="12" height="12" transform="rotate(0,224,32)"/><rect x="218" y="38" width="12" height="12" transform="rotate(0,224,44)"/><rect x="218" y="62" width="12" height="12" transform="rotate(0,224,68)"/><rect x="218" y="74" width="12" height="12" transform="rotate(0,224,80)"/><rect x="218" y="86" width="12" height="12" transform="rotate(0,224,92)"/><rect x="218" y="134" width="12" height="12" transform="rotate(0,224,140)"/><rect x="218" y="146" width="12" height="12" transform="rotate(0,224,152)"/><rect x="218" y="158" width="12" height="12" transform="rotate(0,224,164)"/><rect x="218" y="182" width="12" height="12" transform="rotate(0,224,188)"/><rect x="218" y="206" width="12" height="12" transform="rotate(0,224,212)"/><rect x="218" y="230" width="12" height="12" transform="rotate(0,224,236)"/><rect x="218" y="242" width="12" height="12" transform="rotate(0,224,248)"/><rect x="218" y="254" width="12" height="12" transform="rotate(0,224,260)"/><rect x="218" y="278" width="12" height="12" transform="rotate(0,224,284)"/><rect x="218" y="350" width="12" height="12" transform="rotate(0,224,356)"/><rect x="218" y="362" width="12" height="12" transform="rotate(0,224,368)"/><rect x="230" y="14" width="12" height="12" transform="rotate(0,236,20)"/><rect x="230" y="38" width="12" height="12" transform="rotate(0,236,44)"/><rect x="230" y="50" width="12" height="12" transform="rotate(0,236,56)"/><rect x="230" y="86" width="12" height="12" transform="rotate(0,236,92)"/><rect x="230" y="146" width="12" height="12" transform="rotate(0,236,152)"/><rect x="230" y="170" width="12" height="12" transform="rotate(0,236,176)"/><rect x="230" y="182" width="12" height="12" transform="rotate(0,236,188)"/><rect x="230" y="194" width="12" height="12" transform="rotate(0,236,200)"/><rect x="230" y="230" width="12" height="12" transform="rotate(0,236,236)"/><rect x="230" y="266" width="12" height="12" transform="rotate(0,236,272)"/><rect x="230" y="278" width="12" height="12" transform="rotate(0,236,284)"/><rect x="230" y="290" width="12" height="12" transform="rotate(0,236,296)"/><rect x="230" y="314" width="12" height="12" transform="rotate(0,236,320)"/><rect x="230" y="350" width="12" height="12" transform="rotate(0,236,356)"/><rect x="230" y="362" width="12" height="12" transform="rotate(0,236,368)"/><rect x="230" y="386" width="12" height="12" transform="rotate(0,236,392)"/><rect x="242" y="14" width="12" height="12" transform="rotate(0,248,20)"/><rect x="242" y="38" width="12" height="12" transform="rotate(0,248,44)"/><rect x="242" y="74" width="12" height="12" transform="rotate(0,248,80)"/><rect x="242" y="98" width="12" height="12" transform="rotate(0,248,104)"/><rect x="242" y="110" width="12" height="12" transform="rotate(0,248,116)"/><rect x="242" y="182" width="12" height="12" transform="rotate(0,248,188)"/><rect x="242" y="206" width="12" height="12" transform="rotate(0,248,212)"/><rect x="242" y="218" width="12" height="12" transform="rotate(0,248,224)"/><rect x="242" y="302" width="12" height="12" transform="rotate(0,248,308)"/><rect x="242" y="314" width="12" height="12" transform="rotate(0,248,320)"/><rect x="242" y="326" width="12" height="12" transform="rotate(0,248,332)"/><rect x="242" y="338" width="12" height="12" transform="rotate(0,248,344)"/><rect x="242" y="350" width="12" height="12" transform="rotate(0,248,356)"/><rect x="242" y="374" width="12" height="12" transform="rotate(0,248,380)"/><rect x="242" y="386" width="12" height="12" transform="rotate(0,248,392)"/><rect x="254" y="2" width="12" height="12" transform="rotate(0,260,8)"/><rect x="254" y="26" width="12" height="12" transform="rotate(0,260,32)"/><rect x="254" y="38" width="12" height="12" transform="rotate(0,260,44)"/><rect x="254" y="62" width="12" height="12" transform="rotate(0,260,68)"/><rect x="254" y="98" width="12" height="12" transform="rotate(0,260,104)"/><rect x="254" y="110" width="12" height="12" transform="rotate(0,260,116)"/><rect x="254" y="134" width="12" height="12" transform="rotate(0,260,140)"/><rect x="254" y="146" width="12" height="12" transform="rotate(0,260,152)"/><rect x="254" y="158" width="12" height="12" transform="rotate(0,260,164)"/><rect x="254" y="170" width="12" height="12" transform="rotate(0,260,176)"/><rect x="254" y="182" width="12" height="12" transform="rotate(0,260,188)"/><rect x="254" y="194" width="12" height="12" transform="rotate(0,260,200)"/><rect x="254" y="254" width="12" height="12" transform="rotate(0,260,260)"/><rect x="254" y="266" width="12" height="12" transform="rotate(0,260,272)"/><rect x="254" y="290" width="12" height="12" transform="rotate(0,260,296)"/><rect x="254" y="314" width="12" height="12" transform="rotate(0,260,320)"/><rect x="254" y="338" width="12" height="12" transform="rotate(0,260,344)"/><rect x="254" y="374" width="12" height="12" transform="rotate(0,260,380)"/><rect x="266" y="2" width="12" height="12" transform="rotate(0,272,8)"/><rect x="266" y="50" width="12" height="12" transform="rotate(0,272,56)"/><rect x="266" y="62" width="12" height="12" transform="rotate(0,272,68)"/><rect x="266" y="74" width="12" height="12" transform="rotate(0,272,80)"/><rect x="266" y="146" width="12" height="12" transform="rotate(0,272,152)"/><rect x="266" y="158" width="12" height="12" transform="rotate(0,272,164)"/><rect x="266" y="194" width="12" height="12" transform="rotate(0,272,200)"/><rect x="266" y="242" width="12" height="12" transform="rotate(0,272,248)"/><rect x="266" y="254" width="12" height="12" transform="rotate(0,272,260)"/><rect x="266" y="326" width="12" height="12" transform="rotate(0,272,332)"/><rect x="266" y="350" width="12" height="12" transform="rotate(0,272,356)"/><rect x="266" y="362" width="12" height="12" transform="rotate(0,272,368)"/><rect x="266" y="374" width="12" height="12" transform="rotate(0,272,380)"/><rect x="278" y="2" width="12" height="12" transform="rotate(0,284,8)"/><rect x="278" y="26" width="12" height="12" transform="rotate(0,284,32)"/><rect x="278" y="38" width="12" height="12" transform="rotate(0,284,44)"/><rect x="278" y="62" width="12" height="12" transform="rotate(0,284,68)"/><rect x="278" y="86" width="12" height="12" transform="rotate(0,284,92)"/><rect x="278" y="98" width="12" height="12" transform="rotate(0,284,104)"/><rect x="278" y="122" width="12" height="12" transform="rotate(0,284,128)"/><rect x="278" y="158" width="12" height="12" transform="rotate(0,284,164)"/><rect x="278" y="182" width="12" height="12" transform="rotate(0,284,188)"/><rect x="278" y="218" width="12" height="12" transform="rotate(0,284,224)"/><rect x="278" y="230" width="12" height="12" transform="rotate(0,284,236)"/><rect x="278" y="242" width="12" height="12" transform="rotate(0,284,248)"/><rect x="278" y="266" width="12" height="12" transform="rotate(0,284,272)"/><rect x="278" y="290" width="12" height="12" transform="rotate(0,284,296)"/><rect x="278" y="326" width="12" height="12" transform="rotate(0,284,332)"/><rect x="278" y="350" width="12" height="12" transform="rotate(0,284,356)"/><rect x="278" y="362" width="12" height="12" transform="rotate(0,284,368)"/><rect x="278" y="374" width="12" height="12" transform="rotate(0,284,380)"/><rect x="278" y="386" width="12" height="12" transform="rotate(0,284,392)"/><rect x="290" y="2" width="12" height="12" transform="rotate(0,296,8)"/><rect x="290" y="14" width="12" height="12" transform="rotate(0,296,20)"/><rect x="290" y="26" width="12" height="12" transform="rotate(0,296,32)"/><rect x="290" y="38" width="12" height="12" transform="rotate(0,296,44)"/><rect x="290" y="74" width="12" height="12" transform="rotate(0,296,80)"/><rect x="290" y="86" width="12" height="12" transform="rotate(0,296,92)"/><rect x="290" y="110" width="12" height="12" transform="rotate(0,296,116)"/><rect x="290" y="122" width="12" height="12" transform="rotate(0,296,128)"/><rect x="290" y="134" width="12" height="12" transform="rotate(0,296,140)"/><rect x="290" y="146" width="12" height="12" transform="rotate(0,296,152)"/><rect x="290" y="182" width="12" height="12" transform="rotate(0,296,188)"/><rect x="290" y="230" width="12" height="12" transform="rotate(0,296,236)"/><rect x="290" y="254" width="12" height="12" transform="rotate(0,296,260)"/><rect x="290" y="266" width="12" height="12" transform="rotate(0,296,272)"/><rect x="290" y="278" width="12" height="12" transform="rotate(0,296,284)"/><rect x="290" y="290" width="12" height="12" transform="rotate(0,296,296)"/><rect x="290" y="302" width="12" height="12" transform="rotate(0,296,308)"/><rect x="290" y="314" width="12" height="12" transform="rotate(0,296,320)"/><rect x="290" y="326" width="12" height="12" transform="rotate(0,296,332)"/><rect x="290" y="338" width="12" height="12" transform="rotate(0,296,344)"/><rect x="302" y="98" width="12" height="12" transform="rotate(0,308,104)"/><rect x="302" y="122" width="12" height="12" transform="rotate(0,308,128)"/><rect x="302" y="134" width="12" height="12" transform="rotate(0,308,140)"/><rect x="302" y="146" width="12" height="12" transform="rotate(0,308,152)"/><rect x="302" y="170" width="12" height="12" transform="rotate(0,308,176)"/><rect x="302" y="194" width="12" height="12" transform="rotate(0,308,200)"/><rect x="302" y="218" width="12" height="12" transform="rotate(0,308,224)"/><rect x="302" y="254" width="12" height="12" transform="rotate(0,308,260)"/><rect x="302" y="290" width="12" height="12" transform="rotate(0,308,296)"/><rect x="302" y="338" width="12" height="12" transform="rotate(0,308,344)"/><rect x="302" y="350" width="12" height="12" transform="rotate(0,308,356)"/><rect x="302" y="362" width="12" height="12" transform="rotate(0,308,368)"/><rect x="302" y="386" width="12" height="12" transform="rotate(0,308,392)"/><rect x="314" y="134" width="12" height="12" transform="rotate(0,320,140)"/><rect x="314" y="146" width="12" height="12" transform="rotate(0,320,152)"/><rect x="314" y="158" width="12" height="12" transform="rotate(0,320,164)"/><rect x="314" y="170" width="12" height="12" transform="rotate(0,320,176)"/><rect x="314" y="182" width="12" height="12" transform="rotate(0,320,188)"/><rect x="314" y="194" width="12" height="12" transform="rotate(0,320,200)"/><rect x="314" y="218" width="12" height="12" transform="rotate(0,320,224)"/><rect x="314" y="242" width="12" height="12" transform="rotate(0,320,248)"/><rect x="314" y="266" width="12" height="12" transform="rotate(0,320,272)"/><rect x="314" y="278" width="12" height="12" transform="rotate(0,320,284)"/><rect x="314" y="290" width="12" height="12" transform="rotate(0,320,296)"/><rect x="314" y="314" width="12" height="12" transform="rotate(0,320,320)"/><rect x="314" y="338" width="12" height="12" transform="rotate(0,320,344)"/><rect x="314" y="350" width="12" height="12" transform="rotate(0,320,356)"/><rect x="314" y="362" width="12" height="12" transform="rotate(0,320,368)"/><rect x="314" y="374" width="12" height="12" transform="rotate(0,320,380)"/><rect x="326" y="98" width="12" height="12" transform="rotate(0,332,104)"/><rect x="326" y="158" width="12" height="12" transform="rotate(0,332,164)"/><rect x="326" y="170" width="12" height="12" transform="rotate(0,332,176)"/><rect x="326" y="182" width="12" height="12" transform="rotate(0,332,188)"/><rect x="326" y="230" width="12" height="12" transform="rotate(0,332,236)"/><rect x="326" y="254" width="12" height="12" transform="rotate(0,332,260)"/><rect x="326" y="266" width="12" height="12" transform="rotate(0,332,272)"/><rect x="326" y="278" width="12" height="12" transform="rotate(0,332,284)"/><rect x="326" y="290" width="12" height="12" transform="rotate(0,332,296)"/><rect x="326" y="338" width="12" height="12" transform="rotate(0,332,344)"/><rect x="326" y="350" width="12" height="12" transform="rotate(0,332,356)"/><rect x="326" y="362" width="12" height="12" transform="rotate(0,332,368)"/><rect x="326" y="374" width="12" height="12" transform="rotate(0,332,380)"/><rect x="338" y="110" width="12" height="12" transform="rotate(0,344,116)"/><rect x="338" y="122" width="12" height="12" transform="rotate(0,344,128)"/><rect x="338" y="146" width="12" height="12" transform="rotate(0,344,152)"/><rect x="338" y="158" width="12" height="12" transform="rotate(0,344,164)"/><rect x="338" y="170" width="12" height="12" transform="rotate(0,344,176)"/><rect x="338" y="242" width="12" height="12" transform="rotate(0,344,248)"/><rect x="338" y="254" width="12" height="12" transform="rotate(0,344,260)"/><rect x="338" y="266" width="12" height="12" transform="rotate(0,344,272)"/><rect x="338" y="290" width="12" height="12" transform="rotate(0,344,296)"/><rect x="338" y="302" width="12" height="12" transform="rotate(0,344,308)"/><rect x="338" y="314" width="12" height="12" transform="rotate(0,344,320)"/><rect x="338" y="326" width="12" height="12" transform="rotate(0,344,332)"/><rect x="338" y="338" width="12" height="12" transform="rotate(0,344,344)"/><rect x="338" y="374" width="12" height="12" transform="rotate(0,344,380)"/><rect x="338" y="386" width="12" height="12" transform="rotate(0,344,392)"/><rect x="350" y="110" width="12" height="12" transform="rotate(0,356,116)"/><rect x="350" y="134" width="12" height="12" transform="rotate(0,356,140)"/><rect x="350" y="182" width="12" height="12" transform="rotate(0,356,188)"/><rect x="350" y="194" width="12" height="12" transform="rotate(0,356,200)"/><rect x="350" y="206" width="12" height="12" transform="rotate(0,356,212)"/><rect x="350" y="230" width="12" height="12" transform="rotate(0,356,236)"/><rect x="350" y="254" width="12" height="12" transform="rotate(0,356,260)"/><rect x="350" y="278" width="12" height="12" transform="rotate(0,356,284)"/><rect x="350" y="290" width="12" height="12" transform="rotate(0,356,296)"/><rect x="350" y="302" width="12" height="12" transform="rotate(0,356,308)"/><rect x="350" y="326" width="12" height="12" transform="rotate(0,356,332)"/><rect x="350" y="338" width="12" height="12" transform="rotate(0,356,344)"/><rect x="350" y="350" width="12" height="12" transform="rotate(0,356,356)"/><rect x="350" y="374" width="12" height="12" transform="rotate(0,356,380)"/><rect x="362" y="110" width="12" height="12" transform="rotate(0,368,116)"/><rect x="362" y="122" width="12" height="12" transform="rotate(0,368,128)"/><rect x="362" y="134" width="12" height="12" transform="rotate(0,368,140)"/><rect x="362" y="146" width="12" height="12" transform="rotate(0,368,152)"/><rect x="362" y="158" width="12" height="12" transform="rotate(0,368,164)"/><rect x="362" y="242" width="12" height="12" transform="rotate(0,368,248)"/><rect x="362" y="254" width="12" height="12" transform="rotate(0,368,260)"/><rect x="362" y="290" width="12" height="12" transform="rotate(0,368,296)"/><rect x="362" y="338" width="12" height="12" transform="rotate(0,368,344)"/><rect x="362" y="350" width="12" height="12" transform="rotate(0,368,356)"/><rect x="362" y="374" width="12" height="12" transform="rotate(0,368,380)"/><rect x="362" y="386" width="12" height="12" transform="rotate(0,368,392)"/><rect x="374" y="110" width="12" height="12" transform="rotate(0,380,116)"/><rect x="374" y="158" width="12" height="12" transform="rotate(0,380,164)"/><rect x="374" y="170" width="12" height="12" transform="rotate(0,380,176)"/><rect x="374" y="182" width="12" height="12" transform="rotate(0,380,188)"/><rect x="374" y="230" width="12" height="12" transform="rotate(0,380,236)"/><rect x="374" y="242" width="12" height="12" transform="rotate(0,380,248)"/><rect x="374" y="278" width="12" height="12" transform="rotate(0,380,284)"/><rect x="374" y="302" width="12" height="12" transform="rotate(0,380,308)"/><rect x="374" y="314" width="12" height="12" transform="rotate(0,380,320)"/><rect x="374" y="350" width="12" height="12" transform="rotate(0,380,356)"/><rect x="386" y="122" width="12" height="12" transform="rotate(0,392,128)"/><rect x="386" y="134" width="12" height="12" transform="rotate(0,392,140)"/><rect x="386" y="146" width="12" height="12" transform="rotate(0,392,152)"/><rect x="386" y="206" width="12" height="12" transform="rotate(0,392,212)"/><rect x="386" y="218" width="12" height="12" transform="rotate(0,392,224)"/><rect x="386" y="230" width="12" height="12" transform="rotate(0,392,236)"/><rect x="386" y="242" width="12" height="12" transform="rotate(0,392,248)"/><rect x="386" y="254" width="12" height="12" transform="rotate(0,392,260)"/><rect x="386" y="278" width="12" height="12" transform="rotate(0,392,284)"/><rect x="386" y="290" width="12" height="12" transform="rotate(0,392,296)"/><rect x="386" y="362" width="12" height="12" transform="rotate(0,392,368)"/><rect x="386" y="374" width="12" height="12" transform="rotate(0,392,380)"/></clipPath><clipPath id="clip-path-corners-square-color-0-0"><path clip-rule="evenodd" d="M 2 32v 24a 30 30, 0, 0, 0, 30 30h 24a 30 30, 0, 0, 0, 30 -30v -24a 30 30, 0, 0, 0, -30 -30h -24a 30 30, 0, 0, 0, -30 30M 32 14h 24a 18 18, 0, 0, 1, 18 18v 24a 18 18, 0, 0, 1, -18 18h -24a 18 18, 0, 0, 1, -18 -18v -24a 18 18, 0, 0, 1, 18 -18" transform="rotate(0,44,44)"/></clipPath><clipPath id="clip-path-corners-dot-color-0-0"><rect x="26" y="26" width="36" height="36" transform="rotate(0,44,44)"/></clipPath><clipPath id="clip-path-corners-square-color-1-0"><path clip-rule="evenodd" d="M 314 32v 24a 30 30, 0, 0, 0, 30 30h 24a 30 30, 0, 0, 0, 30 -30v -24a 30 30, 0, 0, 0, -30 -30h -24a 30 30, 0, 0, 0, -30 30M 344 14h 24a 18 18, 0, 0, 1, 18 18v 24a 18 18, 0, 0, 1, -18 18h -24a 18 18, 0, 0, 1, -18 -18v -24a 18 18, 0, 0, 1, 18 -18" transform="rotate(90,356,44)"/></clipPath><clipPath id="clip-path-corners-dot-color-1-0"><rect x="338" y="26" width="36" height="36" transform="rotate(90,356,44)"/></clipPath><clipPath id="clip-path-corners-square-color-0-1"><path clip-rule="evenodd" d="M 2 344v 24a 30 30, 0, 0, 0, 30 30h 24a 30 30, 0, 0, 0, 30 -30v -24a 30 30, 0, 0, 0, -30 -30h -24a 30 30, 0, 0, 0, -30 30M 32 326h 24a 18 18, 0, 0, 1, 18 18v 24a 18 18, 0, 0, 1, -18 18h -24a 18 18, 0, 0, 1, -18 -18v -24a 18 18, 0, 0, 1, 18 -18" transform="rotate(-90,44,356)"/></clipPath><clipPath id="clip-path-corners-dot-color-0-1"><rect x="26" y="338" width="36" height="36" transform="rotate(-90,44,356)"/></clipPath></defs><rect x="0" y="0" height="400" width="400" clip-path="url('#clip-path-background-color')" fill="rgba(0,0,0,0)"/><rect x="2" y="2" height="396" width="396" clip-path="url('#clip-path-dot-color')" fill="#000000"/><rect x="2" y="2" height="84" width="84" clip-path="url('#clip-path-corners-square-color-0-0')" fill="#000000"/><rect x="26" y="26" height="36" width="36" clip-path="url('#clip-path-corners-dot-color-0-0')" fill="#000000"/><rect x="314" y="2" height="84" width="84" clip-path="url('#clip-path-corners-square-color-1-0')" fill="#000000"/><rect x="338" y="26" height="36" width="36" clip-path="url('#clip-path-corners-dot-color-1-0')" fill="#000000"/><rect x="2" y="314" height="84" width="84" clip-path="url('#clip-path-corners-square-color-0-1')" fill="#000000"/><rect x="26" y="338" height="36" width="36" clip-path="url('#clip-path-corners-dot-color-0-1')" fill="#000000"/></svg>